# xmcd
#
# Track frame offsets:
#	150
#	14437
#	25348
#	43330
#	59521
#	70379
#	84766
#	96471
#	111630
#	130405
#	143283
#	162873
#	178218
#	192852
#	206453
#	223561
#	244225
#	256860
#	269772
#	280815
#	296936
#	312973
#
# Disc length: 4313 seconds
#
# Revision: 1
# Processed by: cddbd v1.5.2PL0 Copyright (c) Steve Scherf et al.
# Submitted via: audiograbber 1.83.01
#
DISCID=5c10d716
DTITLE=Eddie Rabbitt - Platinium Collection
DYEAR=2006
DGENRE=Country
TTITLE0=I Love A Rainy Night
TTITLE1=Drinkin' My Baby (Off My Mind)
TTITLE2=Kentucky Rain
TTITLE3=Rocky Mountain Music
TTITLE4=Two Dollars In The Jukebox
TTITLE5=I Can't Help Myself
TTITLE6=Hearts On Fire
TTITLE7=You Don't Love Me Anymore
TTITLE8=I Just Want To Love You
TTITLE9=Every Which Way But Loose
TTITLE10=Suspicions
TTITLE11=Pour Me Another Tequila
TTITLE12=Drivin' My Life Away
TTITLE13=Nothing Like Falling In Love
TTITLE14=Is There A Country Song On The Jukebox
TTITLE15=Song Of Ireland
TTITLE16=I Can't Get Ths Ring Off My Finger
TTITLE17=Could You Love A Poor Boy Dolly
TTITLE18=Pure Love
TTITLE19=Amazing Love
TTITLE20=We Can't Go On Living Like This
TTITLE21=Plain As The Pain On My Face
EXTD=
EXTT0=
EXTT1=
EXTT2=
EXTT3=
EXTT4=
EXTT5=
EXTT6=
EXTT7=
EXTT8=
EXTT9=
EXTT10=
EXTT11=
EXTT12=
EXTT13=
EXTT14=
EXTT15=
EXTT16=
EXTT17=
EXTT18=
EXTT19=
EXTT20=
EXTT21=
PLAYORDER=
